PathFileType	4	(X/Y/Z)	S:\OneDrive - The University of Tokyo\ìåëÂéˆã∆\ÉoÉCÉÅÉJ\ë™íË\hirabayashi_2\Trimmed\Trimmed_BarRL0kg1.trc
DataRate	CameraRate	NumFrames	NumMarkers	Units	OrigDataRate	OrigDataStartFrame	OrigNumFrames
200.00	200.00	       24	12	mm	200.00	101	       234
Frame#	Time	BarR0			BarR50			BarR100			BarR130			BarR180			BarR230			BarL0			BarL50			BarL100			BarL130			BarL180			BarL230			
		X1	Y1	Z1	X2	Y2	Z2	X3	Y3	Z3	X4	Y4	Z4	X5	Y5	Z5	X6	Y6	Z6	X7	Y7	Z7	X8	Y8	Z8	X9	Y9	Z9	X10	Y10	Z10	X11	Y11	Z11	X12	Y12	Z12	

101	0.500	-575.98938	2755.46753	1664.49268	-604.88739	2306.33643	1662.45935	-637.33478	1851.92285	1662.12341	-660.75897	1349.44434	1662.13647	-690.08813	902.84631	1662.88831	-713.78363	454.77054	1664.12659	-1113.89355	2808.32471	1664.63940	-1140.92053	2356.55078	1667.99658	-1171.52734	1906.12524	1668.92395	-1199.11328	1404.02734	1669.09167	-1226.84485	952.73792	1668.40771	-1244.75476	506.50330	1667.62842	
102	0.505	-576.00067	2755.48169	1664.47156	-604.86902	2306.33447	1662.45740	-637.34607	1851.94946	1662.11279	-660.76062	1349.43640	1662.12366	-690.09198	902.81915	1662.87964	-713.79675	454.78183	1664.12817	-1113.92969	2808.34229	1664.64551	-1140.93518	2356.55420	1667.97888	-1171.51025	1906.12280	1668.90356	-1199.12622	1404.02954	1669.07556	-1226.85059	952.72656	1668.39331	-1244.76746	506.52179	1667.61536	
103	0.510	-575.98792	2755.48218	1664.47961	-604.87164	2306.32935	1662.45581	-637.30798	1851.94958	1662.12915	-660.74719	1349.45337	1662.13367	-690.09180	902.82019	1662.89001	-713.80090	454.78577	1664.13098	-1113.94629	2808.33618	1664.62341	-1140.92834	2356.55396	1667.98022	-1171.49768	1906.13574	1668.90967	-1199.12354	1404.01147	1669.08228	-1226.85742	952.73505	1668.38965	-1244.75537	506.50128	1667.62012	
104	0.515	-575.98279	2755.46997	1664.48767	-604.90472	2306.33472	1662.46191	-637.33948	1851.93323	1662.12476	-660.75049	1349.43811	1662.11169	-690.09869	902.84204	1662.88855	-713.80225	454.77908	1664.12427	-1113.88403	2808.31079	1664.62634	-1140.91980	2356.55518	1667.99072	-1171.49695	1906.13647	1668.92285	-1199.11584	1404.01697	1669.07825	-1226.86890	952.72101	1668.40112	-1244.75134	506.49472	1667.62878	
105	0.520	-575.99219	2755.47583	1664.49500	-604.87207	2306.33716	1662.46765	-637.31323	1851.95166	1662.13586	-660.75055	1349.47058	1662.11572	-690.10303	902.82922	1662.87048	-713.77954	454.77368	1664.13074	-1113.87195	2808.31836	1664.64490	-1140.89636	2356.54224	1668.00330	-1171.52600	1906.12878	1668.92444	-1199.11255	1404.03577	1669.09644	-1226.85681	952.73450	1668.40503	-1244.74609	506.52557	1667.62048	
106	0.525	-576.00525	2755.47998	1664.48975	-604.89539	2306.34106	1662.46753	-637.34369	1851.95044	1662.14880	-660.73383	1349.43872	1662.12756	-690.07837	902.82709	1662.88171	-713.78375	454.76547	1664.13062	-1113.90613	2808.31787	1664.61499	-1140.92151	2356.55688	1668.00928	-1171.52979	1906.12476	1668.92688	-1199.12378	1404.05029	1669.10608	-1226.85791	952.73065	1668.40503	-1244.75842	506.50171	1667.62903	
107	0.530	-575.97852	2755.46069	1664.47083	-604.89478	2306.34399	1662.46179	-637.31750	1851.91760	1662.12146	-660.74170	1349.41675	1662.10535	-690.08142	902.81873	1662.90222	-713.78979	454.76700	1664.12683	-1113.96057	2808.31177	1664.62476	-1140.93469	2356.55469	1668.00208	-1171.50122	1906.13513	1668.92871	-1199.12378	1404.03796	1669.08704	-1226.86353	952.72791	1668.41235	-1244.74390	506.51666	1667.62988	
108	0.535	-575.98486	2755.46924	1664.47473	-604.90411	2306.35010	1662.46375	-637.30914	1851.90735	1662.12573	-660.76099	1349.47034	1662.10291	-690.10822	902.81049	1662.87061	-713.79639	454.77588	1664.13159	-1113.95398	2808.30493	1664.61487	-1140.92517	2356.55005	1667.99683	-1171.49329	1906.14734	1668.92212	-1199.13708	1404.01660	1669.09058	-1226.84766	952.73328	1668.40112	-1244.74170	506.50195	1667.62183	
109	0.540	-575.99536	2755.48218	1664.49207	-604.89685	2306.36035	1662.46118	-637.33136	1851.94067	1662.12463	-660.74792	1349.46252	1662.11499	-690.09430	902.84473	1662.87207	-713.78088	454.76364	1664.12000	-1113.90784	2808.32935	1664.62390	-1140.93872	2356.55884	1667.99133	-1171.49988	1906.16309	1668.90588	-1199.11267	1404.00806	1669.08057	-1226.87183	952.71692	1668.39478	-1244.73962	506.51358	1667.62415	
110	0.545	-575.99670	2755.46777	1664.47864	-604.90582	2306.33862	1662.46643	-637.32507	1851.96082	1662.11230	-660.77484	1349.44714	1662.12280	-690.08789	902.84155	1662.87329	-713.78815	454.79440	1664.12598	-1113.91687	2808.31274	1664.61157	-1140.90698	2356.55884	1667.99280	-1171.50525	1906.11377	1668.91711	-1199.12219	1404.04346	1669.06494	-1226.85242	952.72821	1668.39929	-1244.74426	506.53476	1667.62256	
111	0.550	-575.99774	2755.47583	1664.48999	-604.87988	2306.36401	1662.45471	-637.30322	1851.91846	1662.13074	-660.74536	1349.45276	1662.11841	-690.08173	902.82867	1662.87781	-713.78302	454.76025	1664.12390	-1113.93250	2808.33813	1664.63367	-1140.93054	2356.57031	1667.98950	-1171.51038	1906.11682	1668.91406	-1199.11755	1404.04138	1669.09717	-1226.86206	952.72113	1668.39258	-1244.75256	506.49991	1667.61987	
112	0.555	-575.99866	2755.47241	1664.47949	-604.87640	2306.34668	1662.47485	-637.33301	1851.95422	1662.11707	-660.75647	1349.40955	1662.12573	-690.09100	902.80597	1662.89172	-713.77899	454.77005	1664.12610	-1113.92310	2808.31396	1664.61523	-1140.92566	2356.54614	1668.00635	-1171.50049	1906.13440	1668.92517	-1199.11145	1404.03088	1669.09387	-1226.85522	952.69843	1668.40991	-1244.74768	506.51266	1667.63049	
113	0.560	-575.99597	2755.45874	1664.48352	-604.88953	2306.36206	1662.47949	-637.33319	1851.96521	1662.11646	-660.76587	1349.44885	1662.12219	-690.09686	902.83893	1662.89490	-713.78705	454.79819	1664.14233	-1113.94849	2808.32861	1664.64172	-1140.92419	2356.56006	1668.00781	-1171.50159	1906.13818	1668.92615	-1199.11475	1404.01831	1669.07483	-1226.87378	952.71899	1668.40198	-1244.75293	506.49960	1667.62610	
114	0.565	-575.99805	2755.49341	1664.47571	-604.86835	2306.35547	1662.46265	-637.28571	1851.94238	1662.14172	-660.75317	1349.44727	1662.11365	-690.10077	902.82513	1662.89404	-713.78113	454.75867	1664.13159	-1113.85767	2808.30908	1664.62231	-1140.91040	2356.56152	1668.00098	-1171.51318	1906.11975	1668.92395	-1199.11292	1404.04590	1669.09009	-1226.86194	952.71545	1668.39905	-1244.75684	506.51321	1667.62048	
115	0.570	-575.98914	2755.47485	1664.47986	-604.89807	2306.33984	1662.48450	-637.30920	1851.95276	1662.14294	-660.74512	1349.45020	1662.12622	-690.08783	902.83765	1662.89978	-713.80322	454.78659	1664.11768	-1113.89392	2808.34204	1664.63660	-1140.90967	2356.56006	1668.00134	-1171.52527	1906.11877	1668.93164	-1199.12488	1404.03162	1669.07471	-1226.85486	952.73730	1668.39990	-1244.75586	506.51932	1667.62781	
116	0.575	-575.99579	2755.46924	1664.48669	-604.88086	2306.35913	1662.46521	-637.31915	1851.95459	1662.12109	-660.75720	1349.45532	1662.11658	-690.08197	902.83881	1662.88306	-713.79120	454.78955	1664.13379	-1113.90320	2808.33594	1664.64478	-1140.87476	2356.57300	1668.00122	-1171.50293	1906.14819	1668.92957	-1199.12695	1403.98853	1669.09644	-1226.85352	952.71594	1668.41553	-1244.75610	506.51071	1667.61804	
117	0.580	-575.99194	2755.47192	1664.49841	-604.89648	2306.36377	1662.46802	-637.33606	1851.96167	1662.12122	-660.75507	1349.43835	1662.12561	-690.09454	902.84314	1662.88928	-713.78992	454.77933	1664.12854	-1113.92017	2808.33105	1664.62878	-1140.91357	2356.57056	1667.99316	-1171.50671	1906.12219	1668.91577	-1199.12512	1404.08008	1669.09204	-1226.86523	952.71851	1668.41321	-1244.75598	506.50760	1667.63513	
118	0.585	-575.99927	2755.45825	1664.47180	-604.85791	2306.38647	1662.47461	-637.32404	1851.96057	1662.10645	-660.74872	1349.43384	1662.11804	-690.09308	902.82898	1662.89148	-713.80927	454.78494	1664.12244	-1113.95129	2808.34668	1664.62463	-1140.91321	2356.56104	1668.00537	-1171.52661	1906.12549	1668.91553	-1199.10840	1404.03394	1669.11011	-1226.86133	952.72778	1668.41211	-1244.75122	506.50925	1667.62573	
119	0.590	-575.99597	2755.47925	1664.48083	-604.89575	2306.38916	1662.47424	-637.32910	1851.96521	1662.12817	-660.74237	1349.43237	1662.13721	-690.08148	902.83685	1662.89600	-713.78998	454.78436	1664.11890	-1113.88940	2808.30762	1664.64575	-1140.91833	2356.57666	1667.99670	-1171.53064	1906.11914	1668.92102	-1199.12280	1404.02234	1669.08362	-1226.86194	952.70905	1668.40344	-1244.75366	506.54297	1667.63428	
120	0.595	-575.98950	2755.46777	1664.50574	-604.93213	2306.35059	1662.48206	-637.31378	1851.90356	1662.12366	-660.74713	1349.46375	1662.13452	-690.09412	902.83118	1662.89417	-713.77203	454.76398	1664.12659	-1113.89355	2808.34619	1664.63782	-1140.92468	2356.57178	1668.00488	-1171.52820	1906.13110	1668.92676	-1199.12048	1404.02783	1669.09045	-1226.85583	952.72443	1668.40417	-1244.74377	506.52469	1667.63110	
121	0.600	-575.99353	2755.46997	1664.50586	-604.88977	2306.35547	1662.47180	-637.28168	1851.93298	1662.13318	-660.74573	1349.45178	1662.11536	-690.10071	902.82391	1662.88867	-713.80396	454.79083	1664.12231	-1113.89441	2808.35474	1664.64380	-1140.92676	2356.56592	1667.98682	-1171.51501	1906.13501	1668.91431	-1199.12170	1404.02917	1669.09656	-1226.86780	952.71301	1668.40686	-1244.73694	506.48654	1667.62903	
122	0.605	-576.00385	2755.48022	1664.49097	-604.86456	2306.34912	1662.45374	-637.35956	1851.95496	1662.12866	-660.76672	1349.43250	1662.12512	-690.08655	902.81311	1662.89478	-713.79034	454.76453	1664.12939	-1113.94482	2808.35132	1664.63440	-1140.91675	2356.55542	1667.99036	-1171.53271	1906.13391	1668.92310	-1199.13440	1404.02405	1669.10376	-1226.85767	952.73303	1668.40479	-1244.75574	506.52829	1667.63464	
123	0.610	-575.99762	2755.48145	1664.49268	-604.90820	2306.35693	1662.47876	-637.33862	1851.93518	1662.10669	-660.76202	1349.45288	1662.13440	-690.08496	902.82397	1662.87720	-713.79773	454.76575	1664.13440	-1113.91553	2808.35205	1664.63977	-1140.91113	2356.56934	1667.98950	-1171.50903	1906.13220	1668.92285	-1199.11194	1404.03223	1669.08435	-1226.85364	952.72437	1668.39954	-1244.74121	506.50952	1667.62476	
124	0.615	-575.99988	2755.48486	1664.48730	-604.88904	2306.35840	1662.47363	-637.33789	1852.00024	1662.10498	-660.75000	1349.45105	1662.11780	-690.08685	902.80444	1662.88770	-713.79547	454.78375	1664.11938	-1113.88367	2808.34351	1664.62793	-1140.92041	2356.55078	1668.00012	-1171.50977	1906.12695	1668.92773	-1199.13623	1404.01392	1669.09424	-1226.85242	952.71619	1668.40430	-1244.75256	506.50684	1667.62231	
